<?xml version="1.0" encoding="UTF-8" standalone="no"?>
<!-- Created with Inkscape (http://www.inkscape.org/) --><svg height="297.63779pt" id="svg2" inkscape:version="0.42" sodipodi:docbase="/media/data/clipart/karg" sodipodi:docname="airplane_sad.svg" sodipodi:version="0.32" width="419.52754pt" xmlns="http://www.w3.org/2000/svg" xmlns:cc="http://web.resource.org/cc/" xmlns:dc="http://purl.org/dc/elements/1.1/" xmlns:inkscape="http://www.inkscape.org/namespaces/inkscape" xmlns:rdf="http://www.w3.org/1999/02/22-rdf-syntax-ns#" xmlns:sodipodi="http://inkscape.sourceforge.net/DTD/sodipodi-0.dtd" xmlns:svg="http://www.w3.org/2000/svg">
  <metadata>
    <rdf:RDF xmlns:cc="http://web.resource.org/cc/" xmlns:dc="http://purl.org/dc/elements/1.1/" xmlns:rdf="http://www.w3.org/1999/02/22-rdf-syntax-ns#">
      <cc:Work rdf:about="">
        <dc:title>Cartoon Sad Airplane</dc:title>
        <dc:description>Cartoon Sad Airplane</dc:description>
        <dc:subject>
          <rdf:Bag>
            <rdf:li>green</rdf:li>
            <rdf:li>cartoon</rdf:li>
            <rdf:li>sad</rdf:li>
            <rdf:li>airplane</rdf:li>
          </rdf:Bag>
        </dc:subject>
        <dc:publisher>
          <cc:Agent rdf:about="http://www.openclipart.org/">
            <dc:title>kargs.net</dc:title>
          </cc:Agent>
        </dc:publisher>
        <dc:creator>
          <cc:Agent>
            <dc:title>Steve Karg</dc:title>
          </cc:Agent>
        </dc:creator>
        <dc:rights>
          <cc:Agent>
            <dc:title>Steve Karg</dc:title>
          </cc:Agent>
        </dc:rights>
        <dc:date>2006-04-29</dc:date>
        <dc:format>image/svg+xml</dc:format>
        <dc:type rdf:resource="http://purl.org/dc/dcmitype/StillImage"/>
        <cc:license rdf:resource="http://web.resource.org/cc/PublicDomain"/>
        <dc:language>en</dc:language>
      </cc:Work>
      <cc:License rdf:about="http://web.resource.org/cc/PublicDomain">
        <cc:permits rdf:resource="http://web.resource.org/cc/Reproduction"/>
        <cc:permits rdf:resource="http://web.resource.org/cc/Distribution"/>
        <cc:permits rdf:resource="http://web.resource.org/cc/DerivativeWorks"/>
      </cc:License>
    </rdf:RDF>
  </metadata>
  <defs id="defs4"/>
  <sodipodi:namedview bordercolor="#666666" borderopacity="1.0" gridspacingx="5.0000000px" gridspacingy="5.0000000px" gridtolerance="1.0000000px" guidetolerance="10.000000px" id="base" inkscape:current-layer="layer1" inkscape:cx="262.20471" inkscape:cy="186.02362" inkscape:document-units="px" inkscape:grid-bbox="true" inkscape:grid-points="true" inkscape:guide-points="true" inkscape:pageopacity="0.0" inkscape:pageshadow="2" inkscape:window-height="789" inkscape:window-width="1144" inkscape:window-x="0" inkscape:window-y="0" inkscape:zoom="1.6745185" pagecolor="#ffffff" showgrid="true"/>
  <g id="layer1" inkscape:groupmode="layer" inkscape:label="Layer 1">
    <path d="M 240.00000,271.54724 C 260.00000,271.54724 262.36068,231.54724 240.00000,231.54724 C 220.00000,231.54724 230.00000,231.54724 190.00000,231.54724 C 172.34375,231.54724 114.37500,231.54724 100.00000,231.54724 C 80.000002,231.54724 35.811390,225.73585 20.000000,241.54724 C 10.000000,251.54724 20.000000,271.54724 40.000000,271.54724 C 40.000000,271.54724 82.500002,271.54724 140.00000,271.54724 C 197.50000,271.54724 230.00000,271.54724 240.00000,271.54724 z " id="path2041" sodipodi:nodetypes="csssssss" style="fill:#00c300;fill-opacity:1.0000000;fill-rule:evenodd;stroke:#000000;stroke-width:1.0000000px;stroke-linecap:butt;stroke-linejoin:miter;stroke-opacity:1.0000000"/>
    <path d="M 491.43083,226.15201 C 491.43083,312.97229 400.73468,383.43513 288.98407,383.43513 C 177.23346,383.43513 86.082603,313.00902 86.082603,226.18874 C 86.082603,204.48367 95.196037,157.30893 104.23121,142.00637 C 110.43392,131.50104 120.61492,118.68801 142.90235,104.40093 C 182.06208,79.298081 233.10877,68.868881 288.98407,68.868881 C 400.73468,68.868881 491.43083,139.33172 491.43083,226.15201 z " id="path1306" sodipodi:nodetypes="csssssc" style="fill:#00ff00;fill-opacity:1.0000000;fill-rule:evenodd;stroke:#000000;stroke-width:1.0000000px;stroke-linecap:butt;stroke-linejoin:miter;stroke-opacity:1.0000000" transform="matrix(0.615983,0.000000,0.000000,0.633662,46.97458,78.72003)"/>
    <path d="M 230.00000,322.04724 C 230.00000,322.04724 300.00000,327.04724 350.00000,312.04724 C 400.00000,297.04724 405.00000,299.54724 430.00000,262.04724 C 455.00000,224.54724 457.50000,204.54724 450.00000,182.04724 C 442.50000,159.54724 420.00000,152.04724 400.00000,162.04724 C 380.76462,171.66493 392.50000,209.54724 380.00000,222.04724 C 367.50000,234.54724 350.00000,222.04724 350.00000,222.04724" id="path2035" sodipodi:nodetypes="csssssc" style="fill:#00ff00;fill-opacity:1.0000000;fill-rule:evenodd;stroke:#000000;stroke-width:1.0000000px;stroke-linecap:butt;stroke-linejoin:miter;stroke-opacity:1.0000000"/>
    <path d="M 420.00000,202.04724 C 420.00000,192.04724 435.00000,192.04724 450.00000,192.04724 C 465.00000,192.04724 480.00000,192.04724 480.00000,202.04724 C 480.00000,212.04724 465.00000,212.04724 450.00000,212.04724 C 435.00000,212.04724 420.00000,212.04724 420.00000,202.04724 z " id="path2037" sodipodi:nodetypes="cssss" style="fill:#00ba00;fill-opacity:1.0000000;fill-rule:evenodd;stroke:#000000;stroke-width:1.0000000px;stroke-linecap:butt;stroke-linejoin:miter;stroke-opacity:1.0000000"/>
    <path d="M 270.00000,272.04724 C 250.00000,272.04724 247.63932,232.04724 270.00000,232.04724 C 290.00000,232.04724 280.00000,232.04724 320.00000,232.04724 C 337.65625,232.04724 395.62500,232.04724 410.00000,232.04724 C 430.00000,232.04724 474.18861,226.23585 490.00000,242.04724 C 500.00000,252.04724 490.00000,272.04724 470.00000,272.04724 C 470.00000,272.04724 427.50000,272.04724 370.00000,272.04724 C 312.50000,272.04724 280.00000,272.04724 270.00000,272.04724 z " id="path2039" sodipodi:nodetypes="csssssss" style="fill:#00c300;fill-opacity:1.0000000;fill-rule:evenodd;stroke:#000000;stroke-width:1.0000000px;stroke-linecap:butt;stroke-linejoin:miter;stroke-opacity:1.0000000"/>
    <path d="M 100.00000,222.04724 C 100.00000,222.04724 210.00000,222.04724 220.00000,222.04724 C 230.00000,222.04724 230.00000,222.04724 240.00000,222.04724 C 250.00000,222.04724 250.00000,212.04724 250.00000,202.04724 C 250.00000,192.04724 250.00000,182.04724 240.00000,172.04724 C 230.00000,162.04724 121.88087,157.04724 111.88087,167.04724 C 91.880869,187.04724 100.00000,222.04724 100.00000,222.04724 z " id="path2043" sodipodi:nodetypes="csssssc" style="fill:#ffffff;fill-opacity:1.0000000;fill-rule:evenodd;stroke:#000000;stroke-width:1.0000000px;stroke-linecap:butt;stroke-linejoin:miter;stroke-opacity:1.0000000"/>
    <g id="g9325" transform="matrix(-0.733200,0.101792,8.851969e-2,0.637599,242.5374,56.17745)">
      <path d="M 150.00000 197.04724 A 10.000000 15.000000 0 1 1  130.00000,197.04724 A 10.000000 15.000000 0 1 1  150.00000 197.04724 z" id="path7141" sodipodi:cx="140.00000" sodipodi:cy="197.04724" sodipodi:rx="10.000000" sodipodi:ry="15.000000" sodipodi:type="arc" style="fill:#000000;fill-opacity:1.0000000;stroke:#000000;stroke-opacity:1.0000000" transform="translate(10.00000,0.000000)"/>
      <path d="M 155.00000 177.04724 A 5.0000000 5.0000000 0 1 1  145.00000,177.04724 A 5.0000000 5.0000000 0 1 1  155.00000 177.04724 z" id="path7145" sodipodi:cx="150.00000" sodipodi:cy="177.04724" sodipodi:rx="5.0000000" sodipodi:ry="5.0000000" sodipodi:type="arc" style="fill:#ffffff;fill-opacity:1.0000000;stroke:#000000;stroke-opacity:1.0000000" transform="matrix(1.000000,0.000000,0.000000,1.454545,0.603023,-63.35169)"/>
    </g>
    <g id="g2067" transform="matrix(0.733200,0.101792,-8.851969e-2,0.637599,92.46272,56.17745)">
      <path d="M 150.00000 197.04724 A 10.000000 15.000000 0 1 1  130.00000,197.04724 A 10.000000 15.000000 0 1 1  150.00000 197.04724 z" id="path2069" sodipodi:cx="140.00000" sodipodi:cy="197.04724" sodipodi:rx="10.000000" sodipodi:ry="15.000000" sodipodi:type="arc" style="fill:#000000;fill-opacity:1.0000000;stroke:#000000;stroke-opacity:1.0000000" transform="translate(10.00000,0.000000)"/>
      <path d="M 155.00000 177.04724 A 5.0000000 5.0000000 0 1 1  145.00000,177.04724 A 5.0000000 5.0000000 0 1 1  155.00000 177.04724 z" id="path2071" sodipodi:cx="150.00000" sodipodi:cy="177.04724" sodipodi:rx="5.0000000" sodipodi:ry="5.0000000" sodipodi:type="arc" style="fill:#ffffff;fill-opacity:1.0000000;stroke:#000000;stroke-opacity:1.0000000" transform="matrix(1.000000,0.000000,0.000000,1.454545,0.603023,-63.35169)"/>
    </g>
    <path d="M 140.00000,187.04724 C 140.00000,187.04724 146.25000,188.29724 150.00000,187.04724 C 153.75000,185.79724 155.00000,182.04724 155.00000,182.04724 L 155.00000,182.04724" id="path6604" sodipodi:nodetypes="cscc" style="fill:none;fill-opacity:0.75000000;fill-rule:evenodd;stroke:#000000;stroke-width:1.0000000px;stroke-linecap:butt;stroke-linejoin:miter;stroke-opacity:1.0000000"/>
    <path d="M 195.00800,187.53911 C 195.00800,187.53911 188.62903,188.29724 185.00000,187.04724 C 181.37097,185.79724 180.49187,182.53911 180.49187,182.53911 L 180.49187,182.53911" id="path6606" sodipodi:nodetypes="cscc" style="fill:none;fill-opacity:0.75000000;fill-rule:evenodd;stroke:#000000;stroke-width:0.98373878px;stroke-linecap:butt;stroke-linejoin:miter;stroke-opacity:1.0000000"/>
    <path d="M 135.00000,262.04724 C 135.00000,262.04724 146.25000,243.29724 160.00000,247.04724 C 173.75000,250.79724 190.00000,262.04724 190.00000,262.04724" id="path6608" sodipodi:nodetypes="csc" style="fill:none;fill-opacity:0.75000000;fill-rule:evenodd;stroke:#000000;stroke-width:1.0000000px;stroke-linecap:butt;stroke-linejoin:miter;stroke-opacity:1.0000000"/>
    <path d="M 185.00000,267.04724 L 190.00000,262.04724 L 195.00000,257.04724" id="path6610" style="fill:none;fill-opacity:0.75000000;fill-rule:evenodd;stroke:#000000;stroke-width:1.0000000px;stroke-linecap:butt;stroke-linejoin:miter;stroke-opacity:1.0000000"/>
    <path d="M 140.00000,267.04724 L 135.00000,262.04724 L 130.00000,257.04724" id="path1319" sodipodi:nodetypes="ccc" style="fill:none;fill-opacity:0.75000000;fill-rule:evenodd;stroke:#000000;stroke-width:1.0000000px;stroke-linecap:butt;stroke-linejoin:miter;stroke-opacity:1.0000000"/>
  </g>
</svg>
